<?xml version="1.0" encoding="utf-8"?>
<!-- Generator: Adobe Illustrator 21.1.0, SVG Export Plug-In . SVG Version: 6.00 Build 0)  -->
<svg version="1.1" xmlns="http://www.w3.org/2000/svg" xmlns:xlink="http://www.w3.org/1999/xlink" x="0px" y="0px"
	 viewBox="0 0 323 40" style="enable-background:new 0 0 323 40;" xml:space="preserve">
<style type="text/css">
    /* Styling */
    .title { fill: #ffffff; }
    .sub-title { fill: #ffffff; opacity:0.4; }
    /* Visibility */
    .visible { display: inline; }
    .hidden { display: none; }
</style>
<g id="Demos">
    <path id="demos" class="sub-title" d="M0,30.8h3.1c2.6,0,4.3,1.7,4.3,4.4s-1.7,4.4-4.3,4.4H0V30.8z M3,38c1.7,0,2.6-1.1,2.6-2.8S4.7,32.4,3,32.4
        H1.8v5.5L3,38L3,38z M14.9,30.8v1.6h-4.1v1.9h3.7v1.5h-3.7v2.1h4.1v1.6H9v-8.7C9,30.8,14.9,30.8,14.9,30.8z M21.1,37.7L18.6,34
        v5.6h-1.8v-8.7h1.7l2.6,4.1l2.6-4.1h1.7v8.7h-1.8V34L21.1,37.7L21.1,37.7z M31.1,39.7c-2.4,0-4.1-1.9-4.1-4.5s1.7-4.5,4.1-4.5
        s4.1,1.9,4.1,4.5C35.3,37.8,33.6,39.7,31.1,39.7z M31.1,32.3c-1.4,0-2.3,1.2-2.3,2.9s0.9,2.9,2.3,2.9s2.3-1.2,2.3-2.9
        S32.5,32.3,31.1,32.3z M36.6,37.2c0.8,0.6,1.8,1,2.8,1c0.9,0,1.5-0.3,1.5-1c0-0.6-0.4-0.8-1-1l-1.3-0.5c-1.3-0.4-2.1-1.1-2.1-2.5
        c0-1.6,1.4-2.5,3.1-2.5c1.1,0,1.9,0.3,2.6,0.7v1.8c-0.8-0.6-1.6-0.9-2.6-0.9c-0.8,0-1.4,0.3-1.4,0.9c0,0.5,0.4,0.8,1,1l1.4,0.5
        c1.5,0.5,2.1,1.3,2.1,2.6c0,1.7-1.5,2.6-3.3,2.6c-1.2,0-2.2-0.3-2.8-0.7V37.2z M52.2,30.8l3.3,8.7h-1.8l-0.8-2.1h-3.3l-0.8,2.1H47
        l3.3-8.7C50.3,30.8,52.2,30.8,52.2,30.8z M50.2,35.9h2.1L51.2,33L50.2,35.9z M64.1,39.6h-1.4l-4.1-5.8v5.8h-1.7v-8.7h1.7l3.8,5.5
        v-5.5h1.7V39.6z M66.2,30.8h3.1c2.6,0,4.3,1.7,4.3,4.4s-1.7,4.4-4.3,4.4h-3.1V30.8z M69.2,38c1.7,0,2.6-1.1,2.6-2.8
        s-0.9-2.8-2.6-2.8H68v5.5L69.2,38L69.2,38z M78.2,37.2c0.8,0.6,1.8,1,2.8,1c0.9,0,1.5-0.3,1.5-1c0-0.6-0.4-0.8-1-1l-1.2-0.5
        c-1.3-0.4-2.1-1.1-2.1-2.5c0-1.6,1.4-2.5,3.1-2.5c1.1,0,1.9,0.3,2.6,0.7v1.8c-0.8-0.6-1.6-0.9-2.6-0.9c-0.8,0-1.4,0.3-1.4,0.9
        c0,0.5,0.4,0.8,1,1l1.4,0.5c1.5,0.5,2.1,1.3,2.1,2.6c0,1.7-1.5,2.6-3.3,2.6c-1.2,0-2.2-0.3-2.8-0.7L78.2,37.2L78.2,37.2z
        M90.2,30.8l3.3,8.7h-1.8l-0.8-2.1h-3.3l-0.8,2.1H85l3.3-8.7C88.3,30.8,90.2,30.8,90.2,30.8z M88.2,35.9h2.1L89.2,33L88.2,35.9z
        M99.1,37.7L96.6,34v5.6h-1.8v-8.7h1.7l2.6,4.1l2.6-4.1h1.7v8.7h-1.8V34L99.1,37.7L99.1,37.7z M107.3,36.5v3h-1.8v-8.7h3.5
        c1.8,0,3.1,1,3.1,2.9c0,1.8-1.2,2.8-3.1,2.8H107.3z M109,32.4h-1.6V35h1.6c0.9,0,1.4-0.5,1.4-1.3S109.9,32.4,109,32.4z
        M113.5,30.8h1.8v7.1h4.1v1.6h-5.9V30.8z M126.7,30.8v1.6h-4.1v1.9h3.7v1.5h-3.7v2.1h4.1v1.6h-5.9v-8.7
        C120.8,30.8,126.7,30.8,126.7,30.8z M136.4,30.8l3.3,8.7h-1.8l-0.8-2.1h-3.3l-0.8,2.1h-1.8l3.3-8.7
        C134.5,30.8,136.4,30.8,136.4,30.8z M134.4,35.9h2.1l-1.1-2.9L134.4,35.9z M142.8,36.5v3H141v-8.7h3.5c1.8,0,3.1,1,3.1,2.9
        c0,1.8-1.2,2.8-3.1,2.8H142.8z M144.4,32.4h-1.6V35h1.6c0.9,0,1.4-0.5,1.4-1.3C145.8,32.9,145.4,32.4,144.4,32.4z M150.8,36.5v3
        H149v-8.7h3.5c1.8,0,3.1,1,3.1,2.9c0,1.8-1.2,2.8-3.1,2.8H150.8z M152.4,32.4h-1.6V35h1.6c0.9,0,1.4-0.5,1.4-1.3
        C153.8,32.9,153.4,32.4,152.4,32.4z M157,30.8h1.8v7.1h4.1v1.6H157V30.8z M166.1,39.6h-1.8v-8.7h1.8V39.6z M172.1,30.7
        c1,0,1.7,0.3,2.3,0.7v1.8c-0.7-0.6-1.4-0.9-2.2-0.9c-1.6,0-2.6,1.1-2.6,2.8s1,2.8,2.6,2.8c0.8,0,1.5-0.3,2.2-0.8v1.8
        c-0.6,0.4-1.3,0.7-2.3,0.7c-2.5,0-4.3-1.8-4.3-4.5S169.5,30.7,172.1,30.7z M180.6,30.8l3.3,8.7h-1.8l-0.8-2.1H178l-0.8,2.1h-1.8
        l3.3-8.7C178.7,30.8,180.6,30.8,180.6,30.8z M178.6,35.9h2.1l-1.1-2.9L178.6,35.9z M183.6,30.8h7.4v1.6h-2.8v7.1h-1.8v-7.1h-2.8
        L183.6,30.8L183.6,30.8z M194.2,39.6h-1.8v-8.7h1.8V39.6z M200,39.7c-2.4,0-4.1-1.9-4.1-4.5s1.7-4.5,4.1-4.5
        c2.4,0,4.1,1.9,4.1,4.5S202.4,39.7,200,39.7z M200,32.3c-1.4,0-2.3,1.2-2.3,2.9s0.9,2.9,2.3,2.9c1.4,0,2.3-1.2,2.3-2.9
        S201.3,32.3,200,32.3z M213,39.6h-1.4l-4.1-5.8v5.8h-1.7v-8.7h1.7l3.8,5.5v-5.5h1.7V39.6z M214.9,37.2c0.8,0.6,1.8,1,2.8,1
        c0.9,0,1.5-0.3,1.5-1c0-0.6-0.4-0.8-1-1l-1.3-0.4c-1.3-0.4-2.1-1.1-2.1-2.5c0-1.6,1.4-2.5,3.1-2.5c1.1,0,1.9,0.3,2.6,0.7v1.8
        c-0.8-0.6-1.6-0.9-2.6-0.9c-0.8,0-1.4,0.3-1.4,0.9c0,0.5,0.4,0.8,1,1l1.4,0.5c1.5,0.5,2.1,1.3,2.1,2.6c0,1.7-1.5,2.6-3.3,2.6
        c-1.2,0-2.2-0.3-2.8-0.7V37.2z"/>
</g>
<g id="Kendo">
    <path id="kendo" class="title" d="M1.7,10.6l10.1-9.1H14L3.3,11.1l11,10.4h-2.2L1.7,11.8v9.7H0v-20h1.7V10.6z M20.9,20.4c1.6,0,2.8-0.4,4.1-1.4
        v1.6c-1.1,0.9-2.5,1.3-4.2,1.3c-4.1,0-6.8-2.9-6.8-7.4s2.4-7.7,6.3-7.7c3.8,0,5.7,2.9,5.7,7.1v0.6H15.6
        C15.6,18.3,17.9,20.4,20.9,20.4z M15.6,13.1h8.8c-0.1-2.5-1.3-4.9-4.2-4.9C17.9,8.2,16,9.9,15.6,13.1z M28.4,7H30v2.3
        c0.9-1.4,2.6-2.6,4.6-2.6c3.3,0,5,2.1,5,5.2v9.6H38v-9.4c0-2.3-1.1-3.9-3.7-3.9c-2,0-3.6,1.4-4.3,3.1v10.2h-1.6V7z M52.9,19.4
        c-0.8,1.2-2.5,2.4-4.5,2.4c-4.3,0-6.3-3.5-6.3-7.5s2.1-7.5,6.3-7.5c2,0,3.7,1.2,4.5,2.4V0.3h1.6v21.2h-1.6V19.4z M52.9,11.1
        c-1-1.9-2.6-2.9-4.4-2.9c-3,0-4.8,2.5-4.8,6s1.8,6,4.8,6c1.8,0,3.4-1,4.4-2.9V11.1z M63.4,21.8c-3.8,0-6.4-3.1-6.4-7.5
        c0-4.5,2.6-7.5,6.4-7.5c3.9,0,6.4,3.1,6.4,7.5C69.8,18.8,67.2,21.8,63.4,21.8z M63.4,8.2c-2.9,0-4.8,2.4-4.8,6.1s1.9,6.1,4.8,6.1
        c2.9,0,4.8-2.4,4.8-6.1S66.3,8.2,63.4,8.2z M77.5,13.6V1.5h1.7v11.9c0,4.7,2.5,6.9,6,6.9s6-2.2,6-6.9V1.5h1.7v12.2
        c0,5.5-3.4,8.2-7.7,8.2C80.8,21.8,77.5,19.1,77.5,13.6z M98.1,21.5h-1.7v-20h1.7V21.5z M117.8,1.8c-0.4-0.2-0.9-0.4-1.5-0.4
        c-1.5,0-2.6,1.1-2.6,3.1V7h3.4v1.4h-3.4v13.1h-1.6V8.4h-2.4V7h2.4V4.4c0-2.6,1.7-4.4,4.1-4.4c0.6,0,1.1,0.1,1.6,0.3V1.8z
        M123.7,21.8c-3.8,0-6.4-3.1-6.4-7.5c0-4.5,2.6-7.5,6.4-7.5c3.9,0,6.4,3.1,6.4,7.5C130.1,18.8,127.5,21.8,123.7,21.8z M123.7,8.2
        c-2.9,0-4.8,2.4-4.8,6.1s1.9,6.1,4.8,6.1s4.8-2.4,4.8-6.1S126.6,8.2,123.7,8.2z M139.4,8.5c-0.4-0.2-0.8-0.3-1.3-0.3
        c-1.8,0-3.2,1.3-3.9,3.1v10.1h-1.6V7h1.6v2.3c0.7-1.4,2.1-2.6,3.9-2.6c0.6,0,0.9,0.1,1.3,0.2V8.5z M150.2,23.6
        c0,2.5-1.4,3.8-3.7,3.8c-0.3,0-0.6,0-0.8-0.1v-1.4c0.2,0.1,0.4,0.1,0.7,0.1c1.3,0,2.1-0.5,2.1-2.5V7h1.6L150.2,23.6L150.2,23.6z
        M149.3,3.7c-0.6,0-1.1-0.5-1.1-1.1s0.5-1.1,1.1-1.1s1.1,0.5,1.1,1.1C150.4,3.2,150,3.7,149.3,3.7z M166.2,20.4
        c-1.3,0.9-2.9,1.4-4.7,1.4c-5.1,0-8.9-4.2-8.9-10.3s3.8-10.3,8.9-10.3c5.1,0,8.9,4.2,8.9,10.3c0,3.4-1.2,6.2-3.1,8l1.6,2.1
        l-1.1,0.9L166.2,20.4z M161.5,2.7c-4.2,0-7.2,3.6-7.2,8.8s2.9,8.8,7.2,8.8c1.4,0,2.6-0.4,3.7-1l-1.7-2.2l1.1-0.9l1.7,2.2
        c1.5-1.5,2.4-3.9,2.4-6.8C168.7,6.3,165.8,2.7,161.5,2.7z M184.2,21.5h-1.6v-2.3c-0.9,1.4-2.5,2.6-4.6,2.6c-3.3,0-5-2.1-5-5.2V7
        h1.6v9.4c0,2.3,1.1,3.9,3.7,3.9c2,0,3.6-1.4,4.3-3.1V7h1.6V21.5z M193.5,20.4c1.6,0,2.8-0.4,4.1-1.4v1.6c-1.1,0.9-2.5,1.3-4.2,1.3
        c-4.1,0-6.8-2.9-6.8-7.4s2.4-7.7,6.3-7.7c3.8,0,5.7,2.9,5.7,7.1v0.6h-10.4C188.3,18.3,190.5,20.4,193.5,20.4z M188.3,13.1h8.8
        c-0.1-2.5-1.3-4.9-4.2-4.9C190.5,8.2,188.7,9.9,188.3,13.1z M207.9,8.5c-0.4-0.2-0.8-0.3-1.3-0.3c-1.8,0-3.2,1.3-3.9,3.1v10.1H201
        V7h1.6v2.3c0.7-1.4,2.1-2.6,3.9-2.6c0.6,0,0.9,0.1,1.3,0.2L207.9,8.5L207.9,8.5z M212.1,27.1l2.4-5.7L208.8,7h1.7l4.8,12.3
        L220.1,7h1.7l-8,20.1H212.1z M103.1,8.2c-1.2,0-2.1-0.9-2.1-2.1s1-2.1,2.1-2.1s2.1,0.9,2.1,2.1S104.2,8.2,103.1,8.2 M103.1,4.3
        c-1,0-1.7,0.7-1.7,1.8s0.8,1.8,1.7,1.8c1,0,1.7-0.7,1.7-1.8S104,4.3,103.1,4.3 M102.8,6.4v0.7h-0.6V4.9h1c0.5,0,0.8,0.3,0.8,0.8
        c0,0.3-0.2,0.6-0.4,0.7l0.5,0.8h-0.7L103,6.4H102.8z M103.2,5.4h-0.3v0.5h0.3c0.2,0,0.3-0.1,0.3-0.2
        C103.5,5.5,103.4,5.4,103.2,5.4"/>
</g>
</svg>